<svg xmlns="http://www.w3.org/2000/svg" width="677" height="668" viewBox="0 0 677 668">
<g>
<path d="M 358.64 517.89 C354.87,519.05 350.61,520.00 349.17,520.00 C346.87,520.00 347.23,519.56 352.02,516.44 C364.62,508.27 374.94,491.37 383.90,464.29 C395.09,430.47 400.72,392.08 401.70,342.80 C403.44,256.03 385.62,179.15 357.83,153.50 C354.85,150.75 351.53,147.99 350.46,147.37 C347.22,145.49 349.44,144.83 354.63,146.12 C362.91,148.17 372.17,152.36 379.90,157.54 C390.63,164.73 390.45,164.66 403.00,166.52 C423.29,169.53 444.09,175.87 463.47,184.94 C517.98,210.46 555.88,256.95 564.50,308.89 C566.62,321.62 566.12,347.28 563.53,359.00 C559.44,377.54 550.55,398.17 540.06,413.50 C531.55,425.93 517.11,441.41 504.37,451.75 C496.04,458.51 478.25,469.73 467.50,474.99 C447.99,484.53 427.14,491.27 405.78,494.93 L 394.05 496.95 L 385.50 503.47 C375.68,510.97 368.38,514.88 358.64,517.89 ZM 325.36 516.07 C331.91,520.46 330.86,521.03 321.00,518.41 C306.19,514.47 288.04,502.22 276.52,488.38 C272.68,483.77 268.94,480.00 268.21,480.00 C267.48,480.00 267.14,479.58 267.46,479.06 C267.78,478.55 265.61,474.39 262.64,469.81 C250.66,451.35 240.63,426.00 234.64,399.00 C218.23,325.04 230.26,243.82 265.45,191.00 C274.04,178.10 288.63,163.24 299.14,156.69 C307.25,151.64 319.63,146.68 327.00,145.53 L 331.50 144.84 L 325.90 148.67 C313.34,157.27 303.29,173.49 294.70,199.02 C259.42,303.92 276.79,483.52 325.36,516.07 ZM 410.00 478.97 C410.00,481.47 432.72,469.62 443.74,461.38 C477.96,435.79 500.11,393.21 504.07,345.37 C509.03,285.50 483.55,227.77 438.50,196.85 C428.09,189.70 408.76,180.41 406.81,181.62 C406.43,181.85 408.78,185.75 412.03,190.27 C421.48,203.45 431.86,225.50 438.03,245.50 C456.24,304.59 454.73,374.41 433.99,431.69 C429.64,443.69 420.15,463.06 414.59,471.27 C412.06,475.00 410.00,478.46 410.00,478.97 ZM 446.56 473.87 C440.82,478.24 440.06,479.12 442.50,478.55 C446.79,477.55 460.02,470.79 468.36,465.33 C478.03,459.01 498.09,438.66 505.65,427.50 C519.76,406.69 529.42,380.55 533.03,353.39 C534.89,339.45 533.85,309.16 531.06,296.00 C524.88,266.84 511.35,238.68 494.66,220.27 C480.22,204.35 465.66,193.40 448.63,185.67 C439.82,181.67 438.83,182.44 446.05,187.67 C479.56,211.91 502.13,248.32 511.59,293.40 C514.75,308.48 515.91,335.90 514.07,352.00 C510.72,381.23 500.63,409.99 485.99,432.00 C474.22,449.69 463.79,460.77 446.56,473.87 Z" fill="rgb(2,177,92)"/>
<path d="M 582.39 627.03 C574.82,628.96 570.38,629.00 338.59,628.94 C109.73,628.89 102.28,628.83 95.23,626.98 C72.25,620.96 55.51,605.05 46.84,581.00 L 44.50 574.50 L 44.22 338.00 C44.20,318.91 44.18,301.30 44.15,285.05 C43.91,104.17 43.89,91.61 48.86,81.52 C49.68,79.86 50.63,78.26 51.74,76.00 C60.09,58.95 75.36,46.46 94.24,41.23 C100.10,39.61 115.86,39.50 338.50,39.50 C534.46,39.50 577.47,39.74 582.00,40.84 C585.03,41.58 591.33,44.03 596.00,46.28 C602.85,49.58 606.19,52.05 613.21,59.01 C620.33,66.07 622.67,69.20 625.97,76.08 C626.91,78.03 627.72,79.44 628.43,80.90 C633.07,90.48 633.05,102.32 632.82,287.09 C632.80,302.56 632.78,319.25 632.76,337.24 L 632.50 575.50 L 630.15 581.98 C621.62,605.51 604.91,621.27 582.39,627.03 ZM 358.64 517.89 C368.38,514.88 375.68,510.97 385.50,503.47 L 394.05 496.95 L 405.78 494.93 C427.14,491.27 447.99,484.53 467.50,474.99 C478.25,469.73 496.04,458.51 504.37,451.75 C517.11,441.41 531.55,425.93 540.06,413.50 C550.55,398.17 559.44,377.54 563.53,359.00 C566.12,347.28 566.62,321.62 564.50,308.89 C555.88,256.95 517.98,210.46 463.47,184.94 C444.09,175.87 423.29,169.53 403.00,166.52 C390.45,164.66 390.63,164.73 379.90,157.54 C372.17,152.36 362.91,148.17 354.63,146.12 C349.44,144.83 347.22,145.49 350.46,147.37 C351.53,147.99 354.85,150.75 357.83,153.50 C385.62,179.15 403.44,256.03 401.70,342.80 C400.72,392.08 395.09,430.47 383.90,464.29 C374.94,491.37 364.62,508.27 352.02,516.44 C347.23,519.56 346.87,520.00 349.17,520.00 C350.61,520.00 354.87,519.05 358.64,517.89 ZM 325.36 516.07 C276.79,483.52 259.42,303.92 294.70,199.02 C303.29,173.49 313.34,157.27 325.90,148.67 L 331.50 144.84 L 327.00 145.53 C319.63,146.68 307.25,151.64 299.14,156.69 C288.63,163.24 274.04,178.10 265.45,191.00 C230.26,243.82 218.23,325.04 234.64,399.00 C240.63,426.00 250.66,451.35 262.64,469.81 C265.61,474.39 267.78,478.55 267.46,479.06 C267.14,479.58 267.48,480.00 268.21,480.00 C268.81,480.00 271.40,482.50 274.41,485.92 C270.57,481.65 268.17,479.86 264.70,478.44 C232.29,465.17 207.70,441.70 191.43,408.50 C167.85,360.41 167.53,303.58 190.58,255.15 C207.33,219.95 236.51,192.56 268.54,181.99 C272.79,180.58 288.89,164.99 286.06,165.01 C281.91,165.05 267.66,169.08 258.07,172.93 C255.56,173.94 248.10,176.69 241.50,179.03 C192.70,196.40 153.58,225.02 131.51,259.50 C127.11,266.38 116.70,288.92 114.46,296.43 C112.00,304.65 110.01,318.86 110.00,328.16 C110.00,341.46 112.75,360.34 116.18,370.50 C127.15,402.99 152.97,434.45 186.50,456.18 C197.35,463.21 223.37,476.20 235.00,480.38 C240.77,482.46 246.28,484.58 247.24,485.08 C248.19,485.59 249.46,486.00 250.07,486.00 C250.67,486.00 254.16,487.21 257.83,488.70 C261.50,490.18 267.88,492.41 272.00,493.64 C282.55,496.81 283.73,496.96 278.45,490.62 C290.00,503.53 306.99,514.69 321.00,518.41 C330.86,521.03 331.91,520.46 325.36,516.07 ZM 410.00 478.97 C410.00,478.46 412.06,475.00 414.59,471.27 C420.15,463.06 429.64,443.69 433.99,431.69 C454.73,374.41 456.24,304.59 438.03,245.50 C431.86,225.50 421.48,203.45 412.03,190.27 C408.78,185.75 406.43,181.85 406.81,181.62 C408.76,180.41 428.09,189.70 438.50,196.85 C483.55,227.77 509.03,285.50 504.07,345.37 C500.11,393.21 477.96,435.79 443.74,461.38 C432.72,469.62 410.00,481.47 410.00,478.97 ZM 446.56 473.87 C463.79,460.77 474.22,449.69 485.99,432.00 C500.63,409.99 510.72,381.23 514.07,352.00 C515.91,335.90 514.75,308.48 511.59,293.40 C502.13,248.32 479.56,211.91 446.05,187.67 C438.83,182.44 439.82,181.67 448.63,185.67 C465.66,193.40 480.22,204.35 494.66,220.27 C511.35,238.68 524.88,266.84 531.06,296.00 C533.85,309.16 534.89,339.45 533.03,353.39 C529.42,380.55 519.76,406.69 505.65,427.50 C498.09,438.66 478.03,459.01 468.36,465.33 C460.02,470.79 446.79,477.55 442.50,478.55 C440.06,479.12 440.82,478.24 446.56,473.87 ZM 219.19 464.35 C225.29,469.46 222.82,468.86 212.55,462.75 C185.40,446.58 164.07,420.68 151.93,389.15 C142.96,365.87 138.74,330.32 142.47,309.50 C146.27,288.30 151.21,273.33 160.05,256.31 C169.01,239.02 179.70,225.56 194.28,213.18 C201.56,207.01 217.94,196.02 219.91,195.99 C220.23,195.99 216.45,200.18 211.50,205.32 C193.37,224.11 180.28,246.23 172.02,272.00 C154.61,326.34 162.58,387.97 192.92,433.62 C199.59,443.65 212.45,458.70 219.19,464.35 Z" fill="rgb(33,34,33)"/>
<path d="M 219.19 464.35 C212.45,458.70 199.59,443.65 192.92,433.62 C162.58,387.97 154.61,326.34 172.02,272.00 C180.28,246.23 193.37,224.11 211.50,205.32 C216.24,200.40 219.91,196.35 219.93,196.01 C221.23,195.47 222.16,195.23 222.59,195.40 C223.45,195.73 223.84,195.55 223.49,194.99 C223.16,194.44 223.38,194.00 223.98,194.00 C224.59,194.00 225.63,193.54 226.29,192.98 C226.96,192.41 231.32,189.30 236.00,186.05 L 236.54 185.68 C244.74,179.99 247.60,178.00 247.41,177.63 C247.30,177.42 246.31,177.69 244.80,178.09 L 244.61 178.14 C243.24,178.50 240.44,179.44 237.36,180.54 C238.73,180.03 240.11,179.53 241.50,179.03 C248.10,176.69 255.56,173.94 258.07,172.93 C267.66,169.08 281.91,165.05 286.06,165.01 C288.89,164.99 272.79,180.58 268.54,181.99 C236.51,192.56 207.33,219.95 190.58,255.15 C167.53,303.58 167.85,360.41 191.43,408.50 C207.70,441.70 232.29,465.17 264.70,478.44 C268.17,479.86 270.57,481.65 274.41,485.92 C275.10,486.70 275.81,487.53 276.52,488.38 C277.14,489.13 277.79,489.88 278.45,490.62 C283.73,496.96 282.55,496.81 272.00,493.64 C267.88,492.41 261.50,490.18 257.83,488.70 C254.16,487.21 250.67,486.00 250.07,486.00 C249.46,486.00 248.19,485.59 247.24,485.08 C246.74,484.82 245.02,484.12 242.67,483.22 C245.65,484.25 247.94,484.97 248.25,484.98 C250.00,485.03 248.73,483.90 244.75,481.88 C242.41,480.69 239.38,478.86 238.00,477.81 C229.27,471.13 227.57,470.00 226.23,470.00 C224.96,470.00 220.41,467.55 214.92,464.14 C223.16,468.92 224.79,469.04 219.19,464.35 ZM 111.14 345.45 C110.42,339.40 110.00,333.36 110.00,328.16 C110.01,325.47 110.17,322.36 110.47,319.11 C109.91,327.31 110.13,336.08 111.14,345.45 ZM 177.46 212.14 C158.44,226.00 142.58,242.20 131.51,259.50 C142.74,241.96 158.38,225.93 177.46,212.14 ZM 189.02 444.98 C173.06,430.13 160.36,411.05 151.93,389.15 C160.30,410.88 173.03,429.94 189.02,444.98 ZM 190.91 458.88 C189.26,457.91 187.78,457.00 186.50,456.18 C171.29,446.32 157.67,434.47 146.31,421.43 C157.83,434.55 171.73,446.65 186.50,456.14 C187.91,457.04 189.38,457.96 190.91,458.88 ZM 123.77 388.41 C120.76,382.52 118.22,376.53 116.18,370.50 C115.45,368.33 114.75,365.75 114.09,362.92 C116.17,371.31 119.22,379.27 123.77,388.41 ZM 212.05 200.33 C207.25,203.43 201.26,207.63 196.87,211.08 C201.73,207.19 207.31,203.28 212.05,200.33 Z" fill="rgb(108,180,82)"/>
<path d="M 111.14 345.45 C110.19,336.68 109.94,328.43 110.37,320.68 C110.43,321.30 110.59,321.43 110.85,321.00 C111.35,320.17 112.05,316.80 112.41,313.50 C112.81,309.77 112.71,308.07 112.15,309.00 C111.90,309.41 111.61,310.44 111.33,311.79 C111.61,309.79 111.93,307.80 112.28,305.90 C112.48,305.82 112.81,305.57 113.30,305.17 C115.52,303.32 118.20,294.73 117.78,290.79 C117.63,289.30 117.47,288.70 117.08,289.35 C119.31,283.91 122.44,276.99 125.37,270.99 L 127.44 268.50 C133.12,261.68 138.00,254.45 138.00,252.86 C138.00,251.93 139.79,249.75 141.99,248.01 C144.18,246.27 146.67,243.39 147.52,241.60 C149.82,236.76 155.94,230.49 160.83,227.95 C163.21,226.72 165.55,224.70 166.02,223.45 C166.49,222.20 168.06,220.35 169.50,219.34 C170.94,218.33 173.45,216.44 175.08,215.15 C176.70,213.86 178.71,213.06 179.55,213.38 C180.53,213.76 181.46,213.09 182.19,211.48 C182.82,210.10 184.17,209.00 185.24,209.00 C186.29,209.00 188.53,207.63 190.20,205.95 C193.37,202.78 203.85,197.00 206.42,197.00 C207.24,197.00 208.26,196.40 208.70,195.67 C209.41,194.49 212.02,193.09 221.00,189.12 C222.38,188.51 224.18,187.62 225.00,187.14 C227.54,185.66 233.34,184.00 233.93,184.59 C234.23,184.90 233.80,185.53 232.97,185.99 C232.15,186.46 230.30,187.92 228.88,189.24 C227.45,190.56 224.76,192.21 222.89,192.90 C221.03,193.60 218.82,194.57 218.00,195.07 C217.18,195.56 215.15,196.58 213.50,197.33 C211.85,198.08 209.88,199.43 209.13,200.35 C208.37,201.26 206.96,202.00 205.98,202.00 C205.01,202.00 203.97,202.62 203.68,203.39 C203.39,204.15 200.64,206.04 197.58,207.59 C194.51,209.15 192.00,210.93 192.00,211.56 C192.00,212.19 189.48,215.05 186.40,217.92 C177.63,226.08 180.66,224.95 189.60,217.32 C185.73,220.88 182.14,224.56 178.80,228.41 C180.91,225.68 181.03,225.00 179.98,225.00 C178.00,225.00 169.39,234.31 167.03,239.00 C165.79,241.48 163.79,244.85 162.58,246.50 C159.54,250.67 149.56,271.45 147.70,277.50 C145.50,284.61 142.98,296.08 142.99,298.92 C143.00,302.12 143.74,301.24 145.17,296.32 C144.20,300.47 143.31,304.83 142.47,309.50 C138.84,329.78 142.75,364.03 151.24,387.31 C149.54,383.35 148.76,383.49 149.23,388.00 C149.50,390.57 150.84,394.17 152.35,396.39 C153.81,398.53 155.00,401.02 155.00,401.94 C155.00,403.82 163.09,417.35 166.25,420.75 C169.70,424.45 169.40,422.52 165.59,416.57 C164.63,415.07 163.58,413.30 162.50,411.38 C168.88,422.47 176.50,432.52 185.18,441.25 C182.48,438.59 179.99,435.93 177.83,433.37 C173.96,428.77 170.57,425.00 170.31,425.00 C169.08,425.00 176.01,435.37 178.22,436.83 C179.61,437.75 182.73,440.83 185.15,443.69 C189.95,449.32 196.11,454.58 198.98,455.49 C199.97,455.81 201.01,456.93 201.29,457.99 C201.57,459.07 203.04,460.21 204.64,460.59 C206.22,460.96 208.30,461.96 209.27,462.81 C210.25,463.66 213.17,465.60 215.77,467.12 C218.37,468.65 221.40,469.91 222.50,469.93 C224.12,469.96 223.93,469.62 221.50,468.14 C220.82,467.73 219.57,466.97 218.03,466.03 C222.07,468.42 225.21,470.00 226.23,470.00 C226.32,470.00 226.41,470.01 226.51,470.02 C226.14,470.13 226.67,470.78 227.78,471.56 C231.01,473.82 230.51,474.99 226.25,475.08 L 222.60 475.17 C222.28,475.02 221.97,474.88 221.65,474.73 C221.71,474.52 221.50,474.11 221.00,473.50 C220.32,472.67 218.80,472.02 217.63,472.04 C216.84,472.05 216.37,472.07 216.22,472.17 C210.08,469.22 203.64,465.94 198.00,462.87 C198.84,463.07 199.07,462.71 198.77,461.82 C198.56,461.17 197.06,460.14 195.44,459.54 C189.20,457.22 182.73,452.68 181.83,450.00 C181.60,449.31 180.53,448.69 179.46,448.62 C177.26,448.48 157.28,432.52 156.80,430.52 C156.64,429.81 152.00,424.45 146.50,418.61 C134.16,405.49 132.00,402.74 132.00,400.13 C132.00,399.00 130.71,396.59 129.13,394.78 C127.56,392.98 125.95,390.38 125.55,389.00 C125.15,387.62 123.07,382.33 120.93,377.24 C118.78,372.15 116.74,366.20 116.39,364.01 C115.81,360.41 113.74,357.25 113.16,358.49 C112.35,354.37 111.66,349.91 111.14,345.45 ZM 145.53 377.05 C148.15,382.12 148.81,380.29 146.87,373.30 C145.85,369.62 144.40,362.41 143.64,357.27 C142.88,352.13 142.01,347.68 141.71,347.37 C141.40,347.07 140.84,348.92 140.45,351.48 C139.93,354.94 140.30,358.00 141.88,363.32 C143.05,367.27 144.00,371.31 144.00,372.30 C144.00,373.29 144.69,375.43 145.53,377.05 ZM 173.11 235.42 C168.30,241.80 164.00,248.68 160.05,256.31 C155.95,264.21 152.69,271.66 149.99,279.50 C155.46,263.27 163.66,247.57 173.11,235.42 ZM 162.15 224.40 C152.44,233.12 143.39,242.97 136.44,252.29 C143.60,242.49 152.27,233.11 162.15,224.40 ZM 187.30 456.65 C187.03,456.48 186.76,456.31 186.50,456.14 C176.51,449.72 166.92,442.11 158.20,433.80 C166.92,442.01 176.69,449.70 187.30,456.65 ZM 113.20 301.30 C113.60,299.53 114.02,297.89 114.46,296.43 C114.85,295.11 115.50,293.31 116.33,291.22 C116.01,292.14 115.62,293.39 115.12,295.00 C114.44,297.23 113.74,299.51 113.20,301.30 ZM 123.77 388.41 C121.09,383.03 118.93,378.05 117.18,373.15 C119.19,378.35 121.65,384.10 123.97,388.80 C123.90,388.67 123.84,388.54 123.77,388.41 ZM 202.18 196.57 C197.62,199.09 193.12,201.74 188.81,204.45 C193.12,201.71 197.58,199.08 202.18,196.57 ZM 219.90 195.99 C221.19,195.45 222.13,195.22 222.58,195.39 L 222.59 195.40 C222.16,195.23 221.23,195.47 219.93,196.01 C219.93,196.00 219.92,195.99 219.91,195.99 ZM 152.94 391.71 C153.56,393.24 154.19,394.75 154.85,396.24 C154.12,394.60 153.47,393.07 152.94,391.71 Z" fill="rgb(125,217,86)"/>
<path d="M 177.46 212.14 C181.12,209.49 184.90,206.93 188.81,204.45 C193.12,201.74 197.62,199.09 202.18,196.57 C213.17,190.55 224.94,185.18 237.36,180.54 C240.44,179.44 243.24,178.50 244.61,178.14 L 244.80 178.09 C246.31,177.69 247.30,177.42 247.41,177.63 C247.60,178.00 244.74,179.99 236.54,185.68 L 236.00 186.05 C231.32,189.30 226.96,192.41 226.29,192.98 C225.63,193.54 224.59,194.00 223.98,194.00 C223.38,194.00 223.16,194.44 223.49,194.99 C223.84,195.55 223.45,195.73 222.59,195.40 L 222.58 195.39 C222.13,195.22 221.19,195.45 219.90,195.99 C219.09,196.02 215.96,197.80 212.05,200.33 C207.31,203.28 201.73,207.19 196.87,211.08 C195.93,211.82 195.05,212.53 194.28,213.18 C192.68,214.55 191.12,215.92 189.60,217.32 C180.66,224.95 177.63,226.08 186.40,217.92 C189.48,215.05 192.00,212.19 192.00,211.56 C192.00,210.93 194.51,209.15 197.58,207.59 C200.64,206.04 203.39,204.15 203.68,203.39 C203.97,202.62 205.01,202.00 205.98,202.00 C206.96,202.00 208.37,201.26 209.13,200.35 C209.88,199.43 211.85,198.08 213.50,197.33 C215.15,196.58 217.18,195.56 218.00,195.07 C218.82,194.57 221.03,193.60 222.89,192.90 C224.76,192.21 227.45,190.56 228.88,189.24 C230.30,187.92 232.15,186.46 232.97,185.99 C233.80,185.53 234.23,184.90 233.93,184.59 C233.34,184.00 227.54,185.66 225.00,187.14 C224.18,187.62 222.38,188.51 221.00,189.12 C212.02,193.09 209.41,194.49 208.70,195.67 C208.26,196.40 207.24,197.00 206.42,197.00 C203.85,197.00 193.37,202.78 190.20,205.95 C188.53,207.63 186.29,209.00 185.24,209.00 C184.17,209.00 182.82,210.10 182.19,211.48 C181.46,213.09 180.53,213.76 179.55,213.38 C178.71,213.06 176.70,213.86 175.08,215.15 C173.45,216.44 170.94,218.33 169.50,219.34 C168.06,220.35 166.49,222.20 166.02,223.45 C165.55,224.70 163.21,226.72 160.83,227.95 C155.94,230.49 149.82,236.76 147.52,241.60 C146.67,243.39 144.18,246.27 141.99,248.01 C139.79,249.75 138.00,251.93 138.00,252.86 C138.00,254.45 133.12,261.68 127.44,268.50 L 125.37 270.99 C127.75,266.13 129.99,261.88 131.51,259.50 C133.06,257.07 134.71,254.67 136.44,252.29 C143.39,242.97 152.44,233.12 162.15,224.40 C166.98,220.14 172.09,216.05 177.46,212.14 ZM 190.91 458.88 C189.67,458.13 188.46,457.39 187.30,456.65 C176.69,449.70 166.92,442.01 158.20,433.80 C154.02,429.82 150.04,425.68 146.31,421.43 C137.35,411.16 129.80,400.15 123.97,388.80 C121.65,384.10 119.19,378.35 117.18,373.15 C115.96,369.74 114.95,366.37 114.09,362.92 C113.77,361.50 113.45,360.02 113.16,358.49 C113.74,357.25 115.81,360.41 116.39,364.01 C116.74,366.20 118.78,372.15 120.93,377.24 C123.07,382.33 125.15,387.62 125.55,389.00 C125.95,390.38 127.56,392.98 129.13,394.78 C130.71,396.59 132.00,399.00 132.00,400.13 C132.00,402.74 134.16,405.49 146.50,418.61 C152.00,424.45 156.64,429.81 156.80,430.52 C157.28,432.52 177.26,448.48 179.46,448.62 C180.53,448.69 181.60,449.31 181.83,450.00 C182.73,452.68 189.20,457.22 195.44,459.54 C197.06,460.14 198.56,461.17 198.77,461.82 C199.07,462.71 198.84,463.07 198.00,462.87 C195.44,461.48 193.04,460.13 190.91,458.88 ZM 173.11 235.42 C163.66,247.57 155.46,263.27 149.99,279.50 C148.15,284.84 146.57,290.36 145.17,296.32 C143.74,301.24 143.00,302.12 142.99,298.92 C142.98,296.08 145.50,284.61 147.70,277.50 C149.56,271.45 159.54,250.67 162.58,246.50 C163.79,244.85 165.79,241.48 167.03,239.00 C169.39,234.31 178.00,225.00 179.98,225.00 C181.03,225.00 180.91,225.68 178.80,228.41 C176.82,230.68 174.93,233.01 173.11,235.42 ZM 214.92 464.14 C216.00,464.81 217.04,465.45 218.03,466.03 C219.57,466.97 220.82,467.73 221.50,468.14 C223.93,469.62 224.12,469.96 222.50,469.93 C221.40,469.91 218.37,468.65 215.77,467.12 C213.17,465.60 210.25,463.66 209.27,462.81 C208.30,461.96 206.22,460.96 204.64,460.59 C203.04,460.21 201.57,459.07 201.29,457.99 C201.01,456.93 199.97,455.81 198.98,455.49 C196.11,454.58 189.95,449.32 185.15,443.69 C182.73,440.83 179.61,437.75 178.22,436.83 C176.01,435.37 169.08,425.00 170.31,425.00 C170.57,425.00 173.96,428.77 177.83,433.37 C179.99,435.93 182.48,438.59 185.18,441.25 C186.43,442.49 187.72,443.75 189.02,444.97 C196.24,451.76 204.11,457.72 212.55,462.75 C213.39,463.25 214.18,463.72 214.92,464.14 ZM 149.23 388.00 C148.76,383.49 149.54,383.35 151.24,387.31 C151.46,387.93 151.69,388.54 151.93,389.15 C152.26,390.00 152.59,390.85 152.93,391.69 C153.47,393.07 154.12,394.60 154.85,396.24 C157.12,401.39 159.67,406.42 162.46,411.26 C163.58,413.30 164.63,415.07 165.59,416.57 C169.40,422.52 169.70,424.45 166.25,420.75 C163.09,417.35 155.00,403.82 155.00,401.94 C155.00,401.02 153.81,398.53 152.35,396.39 C150.84,394.17 149.50,390.57 149.23,388.00 ZM 235.00 480.38 C231.77,479.22 227.42,477.37 222.60,475.17 L 226.25 475.08 C230.51,474.99 231.01,473.82 227.78,471.56 C226.67,470.78 226.14,470.13 226.51,470.02 C227.83,470.18 229.86,471.58 238.00,477.81 C239.38,478.86 242.41,480.69 244.75,481.88 C248.73,483.90 250.00,485.03 248.25,484.98 C247.94,484.97 245.65,484.25 242.67,483.22 C240.49,482.39 237.78,481.38 235.00,480.38 ZM 145.53 377.05 C144.69,375.43 144.00,373.29 144.00,372.30 C144.00,371.31 143.05,367.27 141.88,363.32 C140.30,358.00 139.93,354.94 140.45,351.48 C140.84,348.92 141.40,347.07 141.71,347.37 C142.01,347.68 142.88,352.13 143.64,357.27 C144.40,362.41 145.85,369.62 146.87,373.30 C148.81,380.29 148.15,382.12 145.53,377.05 ZM 113.20 301.30 C113.74,299.51 114.44,297.23 115.12,295.00 C115.62,293.39 116.01,292.14 116.33,291.22 C116.57,290.62 116.82,290.00 117.08,289.35 C117.47,288.70 117.63,289.30 117.78,290.79 C118.20,294.73 115.52,303.32 113.30,305.17 C112.81,305.57 112.48,305.82 112.28,305.90 C112.57,304.30 112.88,302.76 113.20,301.30 ZM 110.47 319.11 C110.69,316.71 110.98,314.24 111.33,311.79 C111.61,310.44 111.90,309.41 112.15,309.00 C112.71,308.07 112.81,309.77 112.41,313.50 C112.05,316.80 111.35,320.17 110.85,321.00 C110.59,321.43 110.43,321.30 110.37,320.68 C110.40,320.15 110.44,319.63 110.47,319.11 ZM 221.65 474.73 C219.89,473.92 218.07,473.06 216.22,472.17 C216.37,472.07 216.84,472.05 217.63,472.04 C218.80,472.02 220.32,472.67 221.00,473.50 C221.50,474.11 221.71,474.52 221.65,474.73 Z" fill="rgb(126,204,93)"/>
<path d="M 0.00 334.00 L 0.00 0.00 L 338.50 0.00 L 677.00 0.00 L 677.00 334.00 L 677.00 668.00 L 338.50 668.00 L 0.00 668.00 L 0.00 334.00 ZM 582.39 627.03 C604.91,621.27 621.62,605.51 630.15,581.98 L 632.50 575.50 L 632.76 337.24 C633.05,71.61 633.58,91.96 625.97,76.08 C622.67,69.20 620.33,66.07 613.21,59.01 C606.19,52.05 602.85,49.58 596.00,46.28 C591.33,44.03 585.03,41.58 582.00,40.84 C577.47,39.74 534.46,39.50 338.50,39.50 C115.86,39.50 100.10,39.61 94.24,41.23 C75.36,46.46 60.09,58.95 51.74,76.00 C43.29,93.27 43.91,71.51 44.22,338.00 L 44.50 574.50 L 46.84 581.00 C55.51,605.05 72.25,620.96 95.23,626.98 C102.28,628.83 109.73,628.89 338.59,628.94 C570.38,629.00 574.82,628.96 582.39,627.03 Z" fill="rgb(254,254,254)"/>
</g>
</svg>
